<svg width="62" height="69" viewBox="0 0 62 69" fill="none" xmlns="http://www.w3.org/2000/svg">
<path fill-rule="evenodd" clip-rule="evenodd" d="M15.5 7.00005C13.0335 7.00005 10.668 7.97987 8.92391 9.72396C7.17982 11.468 6.2 13.8335 6.2 16.3V50.4C6.2 52.8666 7.17982 55.232 8.92391 56.9761C10.668 58.7202 13.0335 59.7 15.5 59.7H23.25V7.00005H15.5ZM4.53984 5.33989C7.44666 2.43308 11.3891 0.800049 15.5 0.800049H23.25C24.8943 0.800049 26.4713 1.45326 27.6341 2.61599C28.7968 3.77871 29.45 5.3557 29.45 7.00005V59.7C29.45 61.3444 28.7968 62.9214 27.6341 64.0841C26.4713 65.2468 24.8943 65.9 23.25 65.9H15.5C11.3891 65.9 7.44666 64.267 4.53984 61.3602C1.63303 58.4534 0 54.5109 0 50.4V16.3C0 12.1892 1.63303 8.24671 4.53984 5.33989ZM32.8159 5.71599C33.9787 4.55326 35.5557 3.90005 37.2 3.90005H46.5C50.6109 3.90005 54.5533 5.53308 57.4602 8.43989C60.367 11.3467 62 15.2892 62 19.4V53.5C62 57.6109 60.367 61.5534 57.4602 64.4602C54.5533 67.367 50.6109 69 46.5 69H37.2C35.5557 69 33.9787 68.3468 32.8159 67.1841C31.6532 66.0214 31 64.4444 31 62.8V10.1C31 8.4557 31.6532 6.87871 32.8159 5.71599ZM46.5 10.1H37.2V62.8H46.5C48.9665 62.8 51.332 61.8202 53.0761 60.0761C54.8202 58.332 55.8 55.9666 55.8 53.5V19.4C55.8 16.9335 54.8202 14.568 53.0761 12.824C51.332 11.0799 48.9665 10.1 46.5 10.1Z" fill="url(#paint0_linear_0_81)"/>
<path d="M18.6004 48.075C18.6004 45.9349 16.8655 44.2 14.7254 44.2C12.5853 44.2 10.8504 45.9349 10.8504 48.075C10.8504 50.2151 12.5853 51.95 14.7254 51.95C16.8655 51.95 18.6004 50.2151 18.6004 48.075Z" fill="url(#paint1_linear_0_81)"/>
<path d="M50.375 23.2751C50.375 21.135 48.6401 19.4001 46.5 19.4001C44.3599 19.4001 42.625 21.135 42.625 23.2751C42.625 25.4152 44.3599 27.1501 46.5 27.1501C48.6401 27.1501 50.375 25.4152 50.375 23.2751Z" fill="url(#paint2_linear_0_81)"/>
<path fill-rule="evenodd" clip-rule="evenodd" d="M9.2998 24.05C9.2998 22.3379 10.6877 20.95 12.3998 20.95H17.0498C18.7619 20.95 20.1498 22.3379 20.1498 24.05C20.1498 25.7621 18.7619 27.15 17.0498 27.15H12.3998C10.6877 27.15 9.2998 25.7621 9.2998 24.05ZM46.4998 38C48.2119 38 49.5998 39.3879 49.5998 41.1V42.65H51.1498C52.8619 42.65 54.2498 44.0379 54.2498 45.75C54.2498 47.4621 52.8619 48.85 51.1498 48.85H49.5998V50.4C49.5998 52.1121 48.2119 53.5 46.4998 53.5C44.7877 53.5 43.3998 52.1121 43.3998 50.4V48.85H41.8498C40.1377 48.85 38.7498 47.4621 38.7498 45.75C38.7498 44.0379 40.1377 42.65 41.8498 42.65H43.3998V41.1C43.3998 39.3879 44.7877 38 46.4998 38Z" fill="url(#paint3_linear_0_81)"/>
<defs>
<linearGradient id="paint0_linear_0_81" x1="-17.061" y1="19.4063" x2="69.0953" y2="53.4252" gradientUnits="userSpaceOnUse">
<stop stop-color="#5821F8"/>
<stop offset="1" stop-color="#FB41DE"/>
</linearGradient>
<linearGradient id="paint1_linear_0_81" x1="8.71779" y1="46.3144" x2="19.1907" y2="50.8631" gradientUnits="userSpaceOnUse">
<stop stop-color="#5821F8"/>
<stop offset="1" stop-color="#FB41DE"/>
</linearGradient>
<linearGradient id="paint2_linear_0_81" x1="40.4924" y1="21.5144" x2="50.9653" y2="26.0632" gradientUnits="userSpaceOnUse">
<stop stop-color="#5821F8"/>
<stop offset="1" stop-color="#FB41DE"/>
</linearGradient>
<linearGradient id="paint3_linear_0_81" x1="-3.06942" y1="29.8303" x2="50.0296" y2="61.679" gradientUnits="userSpaceOnUse">
<stop stop-color="#5821F8"/>
<stop offset="1" stop-color="#FB41DE"/>
</linearGradient>
</defs>
</svg>
