<svg width="95" height="64" viewBox="0 0 95 64" fill="none" xmlns="http://www.w3.org/2000/svg">
<path fill-rule="evenodd" clip-rule="evenodd" d="M42.101 2.72179C41.464 2.43451 40.7614 2.32458 40.0672 2.40357C40.0227 2.40863 39.9779 2.41117 39.9331 2.41117H37.1014C36.1633 2.41389 35.2643 2.78833 34.601 3.45273C33.938 4.11675 33.5642 5.01644 33.561 5.95543C33.5642 6.89411 33.9377 7.79352 34.6003 8.45749C35.2633 9.12179 36.1617 9.49643 37.0994 9.49967H40.1736C41.7395 9.5036 43.2402 10.1282 44.3478 11.2369C45.4553 12.3456 46.0797 13.8483 46.0844 15.4167L46.0844 15.4232C46.0804 16.9921 45.4565 18.4956 44.3488 19.6049C43.2412 20.7143 41.74 21.3393 40.1736 21.3432L37.3662 21.3432C36.2875 21.3975 35.2111 21.1945 34.2258 20.7507C33.23 20.3021 32.3563 19.6207 31.678 18.7637C31.2707 18.2489 31.3571 17.5008 31.871 17.0928C32.385 16.6848 33.1319 16.7714 33.5393 17.2861C33.9814 17.8448 34.5509 18.2889 35.1999 18.5813C35.849 18.8737 36.5587 19.0057 37.2693 18.9663C37.2911 18.9651 37.313 18.9645 37.3349 18.9645H40.1689C41.1071 18.9618 42.0061 18.5874 42.6694 17.9229C43.3323 17.259 43.7061 16.3596 43.7094 15.4208C43.7057 14.4821 43.3317 13.5829 42.6688 12.9193C42.0055 12.2553 41.1068 11.8811 40.1689 11.8784H37.0974L37.0938 11.8784C35.5279 11.8736 34.0275 11.2483 32.9205 10.1391C31.8136 9.02979 31.19 7.52675 31.186 5.9584V5.95245C31.19 4.38358 31.814 2.8801 32.9216 1.77074C34.0292 0.661378 35.5304 0.0364106 37.0968 0.0324834L37.0998 0.032476L39.8694 0.0324797C40.965 -0.0796381 42.0712 0.0996394 43.0761 0.552813C44.1025 1.01569 44.9854 1.74719 45.6317 2.67029C46.0082 3.2081 45.8781 3.9498 45.3412 4.32693C44.8042 4.70405 44.0636 4.57379 43.6871 4.03598C43.286 3.46306 42.7381 3.00907 42.101 2.72179ZM15.3638 0.0348571C16.0197 0.0348571 16.5513 0.567345 16.5513 1.2242V13.779C16.5352 15.126 17.049 16.4253 17.982 17.3958C18.9077 18.3589 20.1722 18.9213 21.5056 18.964C22.8389 18.9213 24.1034 18.3589 25.0292 17.3958C25.9621 16.4253 26.476 15.126 26.4599 13.779L26.4597 13.7647L26.4598 1.2242C26.4598 0.567345 26.9915 0.0348571 27.6473 0.0348571C28.3031 0.0348571 28.8348 0.567345 28.8348 1.2242V13.7577C28.8565 15.7273 28.1042 17.6265 26.7401 19.0456C25.3743 20.4665 23.5049 21.2917 21.5363 21.3428C21.5158 21.3433 21.4953 21.3433 21.4748 21.3428C19.5062 21.2917 17.6368 20.4665 16.271 19.0456C14.9069 17.6266 14.1547 15.7274 14.1763 13.7578V1.2242C14.1763 0.567345 14.708 0.0348571 15.3638 0.0348571ZM47.2481 1.2242C47.2481 0.567345 47.7798 0.0348571 48.4356 0.0348571H60.959C61.6148 0.0348571 62.1465 0.567345 62.1465 1.2242C62.1465 1.88106 61.6148 2.41355 60.959 2.41355H56.0047V43.8171C56.0047 44.3418 55.6614 44.8045 55.1597 44.9559C54.658 45.1072 54.1166 44.9114 53.8273 44.4739L43.4838 28.8363V43.8147C43.4838 44.4715 42.9521 45.004 42.2963 45.004C41.6404 45.004 41.1088 44.4715 41.1088 43.8147V24.8874C41.1088 24.3627 41.4521 23.9 41.9538 23.7486C42.4555 23.5973 42.9969 23.7931 43.2862 24.2306L53.6297 39.8682V2.41355H48.4356C47.7798 2.41355 47.2481 1.88106 47.2481 1.2242ZM0 1.22658C0 0.569725 0.53166 0.0372367 1.1875 0.0372367H10.64C11.2958 0.0372367 11.8275 0.569725 11.8275 1.22658V15.425L11.8275 15.428C11.8235 16.9968 11.1995 18.5003 10.0919 19.6097C8.98428 20.719 7.48313 21.344 5.91671 21.3479H5.91076C4.34433 21.344 2.84319 20.719 1.73556 19.6097C0.627923 18.5003 0.00392467 16.9968 3.71932e-06 15.428L0 15.425V13.767C0 13.1102 0.53166 12.5777 1.1875 12.5777C1.84333 12.5777 2.37499 13.1102 2.37499 13.767V15.4234C2.37771 16.363 2.75156 17.2633 3.41493 17.9277C4.07792 18.5917 4.97621 18.9661 5.91373 18.9692C6.85126 18.9661 7.74955 18.5917 8.41254 17.9277C9.07588 17.2633 9.44973 16.363 9.45247 15.4235V2.41593H1.1875C0.53166 2.41593 0 1.88344 0 1.22658ZM65.8708 23.4602L65.8752 23.4602L65.9247 23.4602C66.9104 23.4619 67.8857 23.6622 68.7925 24.0495C69.6993 24.4367 70.519 25.0027 71.2027 25.714C71.8864 26.4252 72.4201 27.267 72.772 28.1893C73.1239 29.1115 73.2869 30.0952 73.2511 31.0819C73.2273 31.7383 72.6768 32.2511 72.0214 32.2273C71.366 32.2035 70.8539 31.652 70.8777 30.9956C70.9019 30.328 70.7916 29.6625 70.5535 29.0385C70.3154 28.4145 69.9543 27.845 69.4917 27.3638C69.0292 26.8826 68.4746 26.4995 67.8611 26.2376C67.248 25.9758 66.5885 25.8402 65.922 25.8389C65.9216 25.8389 65.9212 25.8389 65.9207 25.8389L65.8773 25.8389H65.8752V24.6496L65.8796 25.8389C65.8788 25.8389 65.8781 25.8389 65.8773 25.8389C65.1994 25.8417 64.5287 25.9781 63.9034 26.2403C63.2773 26.5028 62.709 26.8862 62.2309 27.3686C61.7528 27.851 61.3743 28.4231 61.1169 29.052C60.8596 29.681 60.7284 30.3546 60.7309 31.0343L60.731 31.0387L60.731 37.4734C60.731 37.4726 60.7309 37.4718 60.7309 37.471L59.5435 37.4755H60.731V37.4734C60.7338 38.1523 60.87 38.824 61.1317 39.4503C61.3938 40.0774 61.7766 40.6465 62.2583 41.1254C62.7399 41.6042 63.3111 41.9834 63.9391 42.2411C64.5671 42.4989 65.2396 42.6303 65.9182 42.6277L65.9227 42.6277L65.9681 42.6277C65.9673 42.6277 65.9665 42.6277 65.9658 42.6277L65.9702 43.8171V42.6277H65.9681C66.646 42.6249 67.3167 42.4885 67.942 42.2263C68.568 41.9639 69.1363 41.5805 69.6144 41.098C70.0925 40.6156 70.4711 40.0436 70.7284 39.4146C70.9858 38.7856 71.117 38.1121 71.1144 37.4324C71.112 36.7755 71.6416 36.241 72.2975 36.2386C72.9533 36.2361 73.487 36.7666 73.4894 37.4234C73.4931 38.4156 73.3017 39.3987 72.926 40.3167C72.5504 41.2347 71.9979 42.0696 71.3001 42.7737C70.6023 43.4779 69.7728 44.0375 68.8591 44.4205C67.9453 44.8036 66.9652 45.0027 65.9746 45.0064L65.9702 45.0064L65.9271 45.0064L65.9227 43.8171V45.0064H65.9259C64.9358 45.01 63.9546 44.8182 63.0384 44.4422C62.1218 44.0659 61.2882 43.5126 60.5852 42.8136C59.8821 42.1147 59.3234 41.284 58.9409 40.3688C58.5584 39.4537 58.3597 38.472 58.356 37.4799L58.356 37.4755V31.0406C58.356 31.0415 58.356 31.0423 58.356 31.0432L59.5435 31.0387H58.356V31.0406C58.3526 30.0494 58.544 29.0672 58.9193 28.15C59.295 27.232 59.8475 26.397 60.5453 25.6929C61.2431 24.9888 62.0726 24.4292 62.9863 24.0461C63.9001 23.663 64.8802 23.4639 65.8708 23.4602ZM37.9149 23.7486C38.4166 23.9 38.7599 24.3627 38.7599 24.8874V49.7329C38.7599 50.3897 38.2282 50.9222 37.5724 50.9222C36.9166 50.9222 36.3849 50.3897 36.3849 49.7329V45.004H25.6875L19.7761 53.9388C19.4138 54.4864 18.677 54.6361 18.1303 54.2733C17.5835 53.9105 17.434 53.1725 17.7963 52.6249L36.5825 24.2305C36.8719 23.7931 37.4133 23.5973 37.9149 23.7486ZM27.2613 42.6253H36.3849V28.8354L27.2613 42.6253ZM9.92272 24.8874C9.92272 24.2306 10.4544 23.6981 11.1102 23.6981H14.1844C17.0024 23.7059 19.7027 24.8305 21.6954 26.8262C23.688 28.822 24.8109 31.5266 24.8187 34.349V34.3555C24.8109 37.1784 23.6877 39.8834 21.6944 41.8792C19.7012 43.875 17.0002 44.9993 14.1817 45.0064H11.1102C10.4544 45.0064 9.92272 44.4739 9.92272 43.8171V24.8874ZM12.2977 26.0768V42.6277L14.1757 42.6277C14.1763 42.6277 14.1769 42.6277 14.1775 42.6277C16.3676 42.6218 18.4664 41.7479 20.0153 40.197C21.5638 38.6464 22.4368 36.5452 22.4437 34.3522C22.4368 32.1596 21.5641 30.0587 20.016 28.5082C18.4675 26.9574 16.3692 26.0832 14.1794 26.0768H12.2977ZM76.0734 24.8874C76.0734 24.2306 76.6051 23.6981 77.2609 23.6981H86.7134C87.3692 23.6981 87.9009 24.2306 87.9009 24.8874C87.9009 25.5443 87.3692 26.0768 86.7134 26.0768H78.4484V33.1605H83.405C84.0609 33.1605 84.5925 33.693 84.5925 34.3499C84.5925 35.0067 84.0609 35.5392 83.405 35.5392H78.4484V42.6277H86.7134C87.3692 42.6277 87.9009 43.1602 87.9009 43.8171C87.9009 44.4739 87.3692 45.0064 86.7134 45.0064H77.2609C76.6051 45.0064 76.0734 44.4739 76.0734 43.8171V24.8874ZM94.3405 42.6924C94.9279 42.9846 95.1675 43.6984 94.8758 44.2867L85.4589 63.2758C85.214 63.7696 84.6623 64.0301 84.126 63.905C83.5898 63.78 83.2097 63.3021 83.2079 62.7507L83.1772 53.5821L78.3696 63.2758C78.1246 63.7697 77.5729 64.0301 77.0367 63.905C76.5004 63.7799 76.1204 63.3021 76.1185 62.7507L76.071 48.5523C76.0688 47.8954 76.5987 47.3611 77.2546 47.3589C77.9104 47.3567 78.4438 47.8874 78.446 48.5443L78.4767 57.7128L83.2844 48.0192C83.5293 47.5253 84.0811 47.2649 84.6173 47.3899C85.1535 47.515 85.5335 47.9929 85.5354 48.5443L85.5661 57.7124L92.7487 43.2285C93.0404 42.6402 93.7531 42.4002 94.3405 42.6924ZM68.3084 47.1829C69.0936 47.1796 69.8718 47.332 70.5979 47.6312C71.3247 47.9307 71.985 48.3714 72.5408 48.9278C73.0966 49.4842 73.5369 50.1453 73.8363 50.873C74.1354 51.6 74.2879 52.379 74.285 53.1653V57.9381C74.3073 58.7209 74.1735 59.5003 73.8916 60.2308C73.6073 60.9675 73.178 61.6395 72.6293 62.2068C72.0806 62.7741 71.4237 63.2252 70.6975 63.5332C69.9714 63.8413 69.1908 64 68.4022 64C67.6136 64 66.833 63.8413 66.1068 63.5332C65.3807 63.2252 64.7238 62.7741 64.1751 62.2068C63.6264 61.6395 63.1971 60.9675 62.9128 60.2308C62.6309 59.5004 62.4972 58.7211 62.5193 57.9385L62.517 53.1835C62.4921 52.4111 62.6213 51.6414 62.897 50.9195C63.1754 50.1906 63.5974 49.5253 64.138 48.9633C64.6785 48.4013 65.3265 47.954 66.0433 47.6481C66.7596 47.3425 67.5299 47.1843 68.3084 47.1829ZM68.3084 47.1829C68.309 47.1829 68.3097 47.1829 68.3103 47.1829L68.3119 48.3723L68.3066 47.1829C68.3072 47.1829 68.3078 47.1829 68.3084 47.1829ZM69.6943 49.831C69.2575 49.651 68.7895 49.5595 68.3173 49.5616L68.3136 49.5616C67.8533 49.5623 67.3977 49.6557 66.9742 49.8364C66.5507 50.0172 66.1678 50.2814 65.8485 50.6135C65.5291 50.9456 65.2797 51.3386 65.1153 51.7693C64.9508 52.1999 64.8746 52.6593 64.8912 53.1201C64.8917 53.1342 64.8919 53.1483 64.8919 53.1624L64.8943 57.9554C64.8943 57.9631 64.8942 57.9707 64.8941 57.9784C64.894 57.9835 64.8939 57.9887 64.8937 57.9938C64.8788 58.4647 64.9584 58.9337 65.128 59.3732C65.2976 59.8126 65.5536 60.2134 65.8809 60.5517C66.2082 60.8901 66.6 61.1592 67.0331 61.3429C67.4663 61.5266 67.9318 61.6213 68.4022 61.6213C68.8725 61.6213 69.3381 61.5266 69.7712 61.3429C70.2044 61.1592 70.5962 60.8901 70.9234 60.5517C71.2507 60.2134 71.5068 59.8126 71.6763 59.3732C71.8459 58.9338 71.9256 58.4647 71.9107 57.9938C71.9102 57.9812 71.91 57.9686 71.91 57.956V53.1629L71.9101 53.1582C71.9119 52.6852 71.8203 52.2165 71.6404 51.7792C71.4605 51.3419 71.1959 50.9445 70.8619 50.6102C70.5278 50.2758 70.131 50.011 69.6943 49.831ZM49.8079 47.4095C50.3096 47.2581 50.851 47.454 51.1404 47.8915L58.3536 58.7976V48.5483C58.3536 47.8914 58.8852 47.3589 59.5411 47.3589C60.1969 47.3589 60.7286 47.8914 60.7286 48.5483V62.7467C60.7286 63.2714 60.3852 63.7342 59.8835 63.8855C59.3818 64.0368 58.8404 63.841 58.5511 63.4035L51.3379 52.4974V62.7467C51.3379 63.4036 50.8062 63.936 50.1504 63.936C49.4945 63.936 48.9629 63.4036 48.9629 62.7467V48.5483C48.9629 48.0235 49.3062 47.5608 49.8079 47.4095Z" fill="url(#paint0_linear_0_80)"/>
<defs>
<linearGradient id="paint0_linear_0_80" x1="-26.1418" y1="17.4604" x2="81.6491" y2="86.9552" gradientUnits="userSpaceOnUse">
<stop stop-color="#5821F8"/>
<stop offset="1" stop-color="#FB41DE"/>
</linearGradient>
</defs>
</svg>
