<svg width="66" height="66" viewBox="0 0 66 66" fill="none" xmlns="http://www.w3.org/2000/svg">
<path d="M22 14.6667H29.3333L33 23.8333L36.6667 14.6667H44L36.6667 33L44 51.3333H36.6667L33 42.1667L29.3333 51.3333H22L29.3333 33L22 14.6667ZM7.33333 0H58.6667C60.6116 0 62.4768 0.772617 63.8521 2.14788C65.2274 3.52315 66 5.38841 66 7.33333V58.6667C66 60.6116 65.2274 62.4768 63.8521 63.8521C62.4768 65.2274 60.6116 66 58.6667 66H7.33333C5.38841 66 3.52315 65.2274 2.14788 63.8521C0.772617 62.4768 0 60.6116 0 58.6667V7.33333C0 5.38841 0.772617 3.52315 2.14788 2.14788C3.52315 0.772617 5.38841 0 7.33333 0ZM7.33333 7.33333V58.6667H58.6667V7.33333H7.33333Z" fill="url(#paint0_linear_0_76)"/>
<defs>
<linearGradient id="paint0_linear_0_76" x1="-18.1617" y1="18.0061" x2="71.0268" y2="56.7439" gradientUnits="userSpaceOnUse">
<stop stop-color="#5821F8"/>
<stop offset="1" stop-color="#FB41DE"/>
</linearGradient>
</defs>
</svg>
