<svg width="87" height="68" viewBox="0 0 87 68" fill="none" xmlns="http://www.w3.org/2000/svg">
<path d="M32.5631 0C38.5556 1.1436 47.3271 3.82665 52.1037 5.41009C64.0452 9.58862 68.127 14.7788 68.127 26.4787C68.127 37.9146 61.1792 42.2251 52.3208 37.9146V16.6261C52.3208 14.207 51.8866 11.8758 49.5417 11.216C47.7614 10.6442 46.7192 12.3157 46.7192 14.7788V68L32.5631 63.4256V0ZM49.368 58.7193L72.1654 50.4942C74.7708 49.5705 75.1616 48.251 73.0773 47.5472C70.9495 46.8435 67.1717 47.0634 64.5663 47.9871L49.368 53.3972V44.7762L50.2799 44.4683C50.2799 44.4683 54.6657 42.7969 60.7884 42.2251C66.998 41.5214 74.5537 42.3131 80.4593 44.5563C87.1465 46.7115 87.9281 49.8784 86.2346 52.0336C84.4976 54.2329 80.329 55.7723 80.329 55.7723L49.368 66.9884V58.7193ZM6.50904 57.8396C-0.308455 55.9922 -1.48089 51.8137 1.6456 49.3946C4.55498 47.1953 9.46183 45.6559 9.46183 45.6559L29.784 38.3984V46.6675L15.1937 51.9897C12.5883 52.9133 12.1975 54.2329 14.2818 54.9366C16.3662 55.6404 20.1874 55.4644 22.7494 54.4968L29.784 51.9457V59.379L28.3945 59.643C21.3599 60.7865 13.891 60.3907 6.50904 57.8396Z" fill="url(#paint0_linear_0_75)"/>
<defs>
<linearGradient id="paint0_linear_0_75" x1="-23.9404" y1="18.5517" x2="82.8335" y2="77.8855" gradientUnits="userSpaceOnUse">
<stop stop-color="#5821F8"/>
<stop offset="1" stop-color="#FB41DE"/>
</linearGradient>
</defs>
</svg>
