<svg width="73" height="73" viewBox="0 0 73 73" fill="none" xmlns="http://www.w3.org/2000/svg">
<path d="M66.2289 0.0028142C65.9313 0.0028142 65.6476 0.143535 65.35 0.441862L63.2439 2.55266L62.3678 1.67176L61.1378 2.8144L62.1038 3.78256L60.8738 4.92802L59.9977 4.04711L58.7677 5.27982L59.6467 6.15791L57.6277 8.26872C57.0239 8.87381 57.0239 9.42262 57.6277 10.0277L45.8701 21.8144C43.2473 19.7121 40.4504 18.1191 37.7967 17.3283C32.86 15.8648 28.4738 16.9202 25.0703 20.3172C23.568 21.8229 22.6469 23.6607 22.2622 25.8587C21.65 29.4218 18.5134 32.2024 14.8038 32.4557C10.7573 32.7287 7.20225 34.3582 4.53735 37.0291C-2.49418 44.0764 -1.2193 56.8622 7.43252 65.5249C12.3467 70.4501 18.6088 73 24.3711 73C28.7574 73 32.8263 71.4718 35.8647 68.4266C38.5324 65.7529 40.1555 62.1927 40.4279 58.1371C40.6806 54.4221 43.368 51.2756 46.9231 50.6593C49.1162 50.2765 51.037 49.3534 52.5393 47.8449C55.9287 44.4479 56.9818 40.0405 55.5216 35.0956C55.0386 33.4436 54.1737 31.7634 53.1543 30.0803L49.0264 34.2147C49.4673 35.059 49.8407 35.8752 50.0822 36.6773C50.9471 39.6015 50.4866 41.9853 48.5883 43.8878C47.9087 44.5605 47.1 44.9319 46.0442 45.1205C39.9674 46.1759 35.2301 51.5177 34.8117 57.7853C34.6376 60.4562 33.6042 62.7668 31.9165 64.4695C27.0669 69.3159 17.9321 68.0438 11.4706 61.5651C5.00911 55.0919 3.64998 45.8326 8.48556 40.9862C10.1873 39.2919 12.4899 38.259 15.1548 38.0845C21.4085 37.6652 26.7271 32.9173 27.7914 26.8269C27.9795 25.7715 28.3418 24.9581 29.0213 24.277C30.3271 22.9683 31.8182 22.3407 33.5845 22.3407C34.3848 22.3407 35.3059 22.5068 36.2157 22.7798C37.9849 23.3089 39.9562 24.353 41.832 25.7715L32.4444 35.1829C31.4151 34.9455 30.3456 34.9438 29.3155 35.1779C28.2854 35.4119 27.3212 35.8758 26.4947 36.5349C25.6682 37.194 25.0005 38.0313 24.5415 38.9847C24.0824 39.9381 23.8437 40.983 23.8432 42.0416C23.8432 45.9198 26.9911 49.0748 30.8635 49.0748C34.7359 49.0748 37.8838 45.9198 37.8838 42.0387C37.8838 41.611 37.7855 41.2141 37.7069 40.806L63.2439 15.1246C63.8476 15.7297 64.4851 15.7297 65.0888 15.1246L67.1949 13.0138L68.071 13.8947L69.2111 12.7521L68.335 11.8712L69.5622 10.6413L70.1771 11.8712L71.3172 10.6413L70.4411 9.76035L72.5472 7.64955C73.1509 7.04445 73.1509 6.4084 72.5472 5.8033L67.1921 0.439047C66.9387 0.174833 66.5941 0.0205665 66.2289 0.0028142ZM65.965 3.42794L67.1949 4.66065L61.7528 10.0277L60.6127 8.88507L65.965 3.42794ZM68.335 5.53875L69.5622 6.77145L64.1228 12.1357L62.9799 10.903L68.335 5.53875ZM17.0868 46.7923L13.1386 50.7493L22.1751 59.8061L26.1234 55.849L17.0868 46.7923Z" fill="url(#paint0_linear_0_86)"/>
<defs>
<linearGradient id="paint0_linear_0_86" x1="-20.0879" y1="19.9158" x2="78.5599" y2="62.7622" gradientUnits="userSpaceOnUse">
<stop stop-color="#5821F8"/>
<stop offset="1" stop-color="#FB41DE"/>
</linearGradient>
</defs>
</svg>
