<svg width="73" height="59" viewBox="0 0 73 59" fill="none" xmlns="http://www.w3.org/2000/svg">
<path fill-rule="evenodd" clip-rule="evenodd" d="M10.95 7.5214C9.98196 7.5214 9.05357 7.90722 8.36906 8.59398C7.68455 9.28074 7.3 10.2122 7.3 11.1834V47.8035C7.3 48.7747 7.68455 49.7061 8.36906 50.3929C9.05357 51.0797 9.98196 51.4655 10.95 51.4655H62.05C63.018 51.4655 63.9464 51.0797 64.6309 50.3929C65.3154 49.7061 65.7 48.7747 65.7 47.8035V11.1834C65.7 10.2122 65.3154 9.28074 64.6309 8.59398C63.9464 7.90722 63.018 7.5214 62.05 7.5214H10.95ZM3.20718 3.41512C5.2607 1.35484 8.04588 0.197388 10.95 0.197388H62.05C64.9541 0.197388 67.7393 1.35484 69.7928 3.41512C71.8463 5.4754 73 8.26973 73 11.1834V47.8035C73 50.7172 71.8463 53.5115 69.7928 55.5718C67.7393 57.632 64.9541 58.7895 62.05 58.7895H10.95C8.04588 58.7895 5.2607 57.632 3.20718 55.5718C1.15366 53.5115 0 50.7171 0 47.8035V11.1834C0 8.26973 1.15366 5.4754 3.20718 3.41512Z" fill="url(#paint0_linear_0_77)"/>
<path fill-rule="evenodd" clip-rule="evenodd" d="M17.0952 15.0334C19.0076 14.3938 21.0746 15.4307 21.7121 17.3494L25.5494 28.8992L29.3867 17.3494C30.0242 15.4307 32.0912 14.3938 34.0036 15.0334C35.916 15.6729 36.9496 17.7468 36.3121 19.6655L29.0121 41.6375C28.5153 43.1329 27.1205 44.1415 25.5494 44.1415C23.9783 44.1415 22.5835 43.1329 22.0867 41.6375L14.7867 19.6655C14.1493 17.7468 15.1828 15.6729 17.0952 15.0334ZM40.1494 18.5075C40.1494 16.485 41.7836 14.8454 43.7994 14.8454H49.2744C51.6945 14.8454 54.0155 15.81 55.7268 17.5269C57.438 19.2438 58.3994 21.5724 58.3994 24.0005C58.3994 26.4285 57.438 28.7571 55.7268 30.474C55.0813 31.1216 54.3492 31.6621 53.5577 32.0842L57.7864 38.4482C58.9046 40.131 58.4513 42.4046 56.7741 43.5265C55.0968 44.6483 52.8306 44.1936 51.7124 42.5108L47.4494 36.0952V40.4795C47.4494 42.502 45.8153 44.1415 43.7994 44.1415C41.7836 44.1415 40.1494 42.502 40.1494 40.4795V18.5075ZM47.4993 25.8315C47.4827 25.8312 47.4661 25.8311 47.4494 25.8311V22.1695H49.2744C49.7584 22.1695 50.2226 22.3624 50.5649 22.7057C50.9071 23.0491 51.0994 23.5149 51.0994 24.0005C51.0994 24.4861 50.9071 24.9518 50.5649 25.2952C50.2226 25.6386 49.7584 25.8315 49.2744 25.8315H47.4993Z" fill="url(#paint1_linear_0_77)"/>
<defs>
<linearGradient id="paint0_linear_0_77" x1="-20.0879" y1="16.1824" x2="70.6102" y2="65.2629" gradientUnits="userSpaceOnUse">
<stop stop-color="#5821F8"/>
<stop offset="1" stop-color="#FB41DE"/>
</linearGradient>
<linearGradient id="paint1_linear_0_77" x1="2.54527" y1="22.8374" x2="52.0342" y2="54.9734" gradientUnits="userSpaceOnUse">
<stop stop-color="#5821F8"/>
<stop offset="1" stop-color="#FB41DE"/>
</linearGradient>
</defs>
</svg>
