<svg width="99" height="28" viewBox="0 0 99 28" fill="none" xmlns="http://www.w3.org/2000/svg">
<path d="M37.72 21C37.1733 19.84 36.6333 18.6333 36.1 17.38C35.5667 16.1267 35.06 14.8867 34.58 13.66C34.1 12.4333 33.6533 11.26 33.24 10.14C32.84 9.02 32.4933 8.02 32.2 7.14H35.64C35.9067 7.94 36.1933 8.80667 36.5 9.74C36.82 10.66 37.14 11.58 37.46 12.5C37.7933 13.42 38.1133 14.3 38.42 15.14C38.7267 15.98 39.0133 16.7067 39.28 17.32C39.5333 16.7067 39.8133 15.98 40.12 15.14C40.44 14.3 40.76 13.42 41.08 12.5C41.4133 11.58 41.7333 10.66 42.04 9.74C42.36 8.80667 42.6533 7.94 42.92 7.14H46.24C45.9333 8.02 45.58 9.02 45.18 10.14C44.78 11.26 44.34 12.4333 43.86 13.66C43.38 14.8867 42.8733 16.1267 42.34 17.38C41.8067 18.6333 41.2667 19.84 40.72 21H37.72ZM52.0936 6.98C54.1736 6.98 55.7669 7.35333 56.8736 8.1C57.9803 8.83333 58.5336 9.98 58.5336 11.54C58.5336 12.5133 58.3069 13.3067 57.8536 13.92C57.4136 14.52 56.7736 14.9933 55.9336 15.34C56.2136 15.6867 56.5069 16.0867 56.8136 16.54C57.1203 16.98 57.4203 17.4467 57.7136 17.94C58.0203 18.42 58.3136 18.9267 58.5936 19.46C58.8736 19.98 59.1336 20.4933 59.3736 21H55.8736C55.6203 20.5467 55.3603 20.0867 55.0936 19.62C54.8403 19.1533 54.5736 18.7 54.2936 18.26C54.0269 17.82 53.7603 17.4067 53.4936 17.02C53.2269 16.62 52.9603 16.26 52.6936 15.94H51.1536V21H48.0336V7.34C48.7136 7.20667 49.4136 7.11333 50.1336 7.06C50.8669 7.00667 51.5203 6.98 52.0936 6.98ZM52.2736 9.64C52.0469 9.64 51.8403 9.64667 51.6536 9.66C51.4803 9.67333 51.3136 9.68667 51.1536 9.7V13.46H52.0336C53.2069 13.46 54.0469 13.3133 54.5536 13.02C55.0603 12.7267 55.3136 12.2267 55.3136 11.52C55.3136 10.84 55.0536 10.36 54.5336 10.08C54.0269 9.78667 53.2736 9.64 52.2736 9.64ZM64.1534 21H61.1734V10.48H64.1534V21ZM64.4334 7.44C64.4334 7.98667 64.2534 8.42 63.8934 8.74C63.5468 9.04667 63.1334 9.2 62.6534 9.2C62.1734 9.2 61.7534 9.04667 61.3934 8.74C61.0468 8.42 60.8734 7.98667 60.8734 7.44C60.8734 6.89333 61.0468 6.46667 61.3934 6.16C61.7534 5.84 62.1734 5.68 62.6534 5.68C63.1334 5.68 63.5468 5.84 63.8934 6.16C64.2534 6.46667 64.4334 6.89333 64.4334 7.44ZM69.4947 15.4C69.4947 17.0667 70.168 17.9 71.5147 17.9C71.8214 17.9 72.108 17.86 72.3747 17.78C72.6414 17.7 72.868 17.6067 73.0547 17.5V12.74C72.908 12.7133 72.7347 12.6933 72.5347 12.68C72.3347 12.6533 72.1014 12.64 71.8347 12.64C71.048 12.64 70.4614 12.9 70.0747 13.42C69.688 13.94 69.4947 14.6 69.4947 15.4ZM76.0347 19.68C76.0347 21.4 75.5947 22.6733 74.7147 23.5C73.848 24.34 72.5014 24.76 70.6747 24.76C70.0347 24.76 69.3947 24.7 68.7547 24.58C68.1147 24.4733 67.5214 24.3267 66.9747 24.14L67.4947 21.64C67.9614 21.8267 68.448 21.9733 68.9547 22.08C69.4747 22.1867 70.0614 22.24 70.7147 22.24C71.568 22.24 72.168 22.0533 72.5147 21.68C72.8747 21.3067 73.0547 20.8267 73.0547 20.24V19.86C72.7347 20.0067 72.4014 20.12 72.0547 20.2C71.7214 20.2667 71.3547 20.3 70.9547 20.3C69.5014 20.3 68.388 19.8733 67.6147 19.02C66.8414 18.1533 66.4547 16.9467 66.4547 15.4C66.4547 14.6267 66.5747 13.9267 66.8147 13.3C67.0547 12.66 67.4014 12.1133 67.8547 11.66C68.3214 11.2067 68.888 10.86 69.5547 10.62C70.2214 10.3667 70.9747 10.24 71.8147 10.24C72.1747 10.24 72.5414 10.26 72.9147 10.3C73.3014 10.3267 73.6814 10.3667 74.0547 10.42C74.428 10.4733 74.7814 10.54 75.1147 10.62C75.4614 10.6867 75.768 10.76 76.0347 10.84V19.68ZM78.8297 21V5.96L81.8097 5.48V10.52C82.0097 10.4533 82.263 10.3933 82.5697 10.34C82.8897 10.2733 83.1964 10.24 83.4897 10.24C84.343 10.24 85.0497 10.36 85.6097 10.6C86.183 10.8267 86.6364 11.1533 86.9697 11.58C87.3164 12.0067 87.5564 12.5133 87.6897 13.1C87.8364 13.6867 87.9097 14.34 87.9097 15.06V21H84.9297V15.42C84.9297 14.46 84.803 13.78 84.5497 13.38C84.3097 12.98 83.8564 12.78 83.1897 12.78C82.923 12.78 82.6697 12.8067 82.4297 12.86C82.203 12.9 81.9964 12.9467 81.8097 13V21H78.8297ZM90.507 7.86L93.487 7.38V10.48H97.067V12.96H93.487V16.66C93.487 17.2867 93.5937 17.7867 93.807 18.16C94.0337 18.5333 94.4804 18.72 95.147 18.72C95.467 18.72 95.7937 18.6933 96.127 18.64C96.4737 18.5733 96.787 18.4867 97.067 18.38L97.487 20.7C97.127 20.8467 96.727 20.9733 96.287 21.08C95.847 21.1867 95.307 21.24 94.667 21.24C93.8537 21.24 93.1804 21.1333 92.647 20.92C92.1137 20.6933 91.687 20.3867 91.367 20C91.047 19.6 90.8204 19.12 90.687 18.56C90.567 18 90.507 17.38 90.507 16.7V7.86Z" fill="#6B38FF"/>
<path fill-rule="evenodd" clip-rule="evenodd" d="M14 0H0V28H14V24C19.5228 24 24 19.5228 24 14C24 8.47715 19.5228 4 14 4V0ZM14 4C8.47715 4 4 8.47715 4 14C4 19.5228 8.47715 24 14 24V4Z" fill="#6B38FF"/>
</svg>
